<svg width="180" height="235" viewBox="0 0 180 235" fill="none" xmlns="http://www.w3.org/2000/svg"> <g filter="url(#filter0_d_34_31516)"> <path d="M47.6751 169.227V182.058H19.6356V169.227H47.6751ZM24.9584 141.758V210.953H8.70494V141.758H24.9584ZM58.6533 141.758V210.953H42.3999V141.758H58.6533ZM98.5265 141.758H114.827V188.854C114.827 194.241 113.861 198.644 111.928 202.066C109.996 205.456 107.287 207.943 103.802 209.528C100.317 211.112 96.1978 211.904 91.4453 211.904C86.7245 211.904 82.6057 211.112 79.0889 209.528C75.5721 207.943 72.8157 205.456 70.8196 202.066C68.8553 198.644 67.8731 194.241 67.8731 188.854V141.758H84.2216V188.854C84.2216 191.706 84.475 193.876 84.982 195.365C85.5206 196.823 86.3285 197.805 87.4057 198.312C88.4829 198.819 89.8295 199.072 91.4453 199.072C93.0928 199.072 94.4394 198.819 95.4849 198.312C96.5304 197.805 97.2908 196.823 97.7661 195.365C98.273 193.876 98.5265 191.706 98.5265 188.854V141.758ZM148.808 181.536H134.455L134.36 170.605H145.956C147.889 170.605 149.41 170.32 150.518 169.75C151.627 169.148 152.419 168.276 152.895 167.136C153.402 165.995 153.655 164.569 153.655 162.858C153.655 160.894 153.402 159.31 152.895 158.106C152.388 156.902 151.58 156.031 150.471 155.492C149.394 154.922 147.984 154.637 146.241 154.637H140.538V210.953H124.285V141.758H146.241C149.948 141.758 153.259 142.154 156.174 142.946C159.089 143.706 161.56 144.878 163.588 146.462C165.647 148.047 167.215 150.043 168.293 152.451C169.37 154.827 169.908 157.631 169.908 160.862C169.908 163.682 169.386 166.328 168.34 168.799C167.326 171.27 165.568 173.282 163.065 174.835C160.562 176.355 157.124 177.148 152.752 177.211L148.808 181.536ZM148.237 210.953H130.416L136.023 198.122H148.237C149.885 198.122 151.168 197.773 152.087 197.076C153.006 196.347 153.655 195.397 154.035 194.225C154.415 193.021 154.606 191.69 154.606 190.233C154.606 188.458 154.415 186.922 154.035 185.623C153.687 184.324 153.101 183.326 152.277 182.629C151.453 181.9 150.297 181.536 148.808 181.536H136.594L136.689 170.605H150.804L154.701 174.977C158.851 174.787 162.099 175.437 164.443 176.926C166.788 178.415 168.435 180.379 169.386 182.819C170.336 185.258 170.811 187.809 170.811 190.47C170.811 195.001 169.972 198.787 168.293 201.829C166.645 204.87 164.142 207.151 160.784 208.672C157.425 210.193 153.243 210.953 148.237 210.953Z" fill="white"/> </g> <path d="M108.337 27.123C108.337 23.0556 103.718 19.7002 97.5917 19.2933V40.5448C105.324 35.9692 108.337 31.3935 108.337 27.123Z" fill="white"/> <path d="M107.534 42.3751C105.425 42.3751 103.517 43.1885 97.5917 47.4591V70.4389C107.835 58.8475 110.747 50.9162 110.747 46.8491C110.747 44.002 109.442 42.3751 107.534 42.3751Z" fill="white"/> <path fill-rule="evenodd" clip-rule="evenodd" d="M126.522 18.1063C126.421 17.6997 126.321 17.5471 126.12 17.4962L118.888 15.5637L117.883 11.3941C117.833 11.1907 117.783 11.0378 117.582 10.987L110.149 8.953L109.245 4.98679C109.194 4.68138 109.044 4.52882 108.843 4.47796L89.5336 0.852511C89.2172 0.793222 88.893 0.793222 88.5769 0.852511L69.2674 4.47796C69.0665 4.52882 68.9158 4.68138 68.8656 4.98679L67.9615 8.953L60.5284 10.987C60.3278 11.0378 60.2773 11.1907 60.2273 11.3941L59.2228 15.5637L51.9906 17.4962C51.7897 17.5471 51.6895 17.6997 51.5888 18.1063C50.9864 21.259 50.6847 24.6155 50.6847 27.9718C50.6847 57.2623 65.7518 82.6881 88.2516 97.842C88.553 98.0454 88.8546 98.2489 89.0553 98.2489C89.2562 98.2489 89.5575 98.0454 89.8589 97.842C112.359 82.6881 127.426 57.2623 127.426 27.9718C127.426 24.6155 127.124 21.259 126.522 18.1063ZM92.2695 84.471C92.0686 84.6744 91.8677 84.573 91.8677 84.3696V12.8877C91.8677 12.6843 91.9679 12.5825 92.1688 12.5825C105.626 13.4977 114.262 19.1919 114.262 27.4278C114.262 30.8852 112.956 34.2406 110.747 36.6812C115.166 37.9012 116.873 41.2566 116.873 45.7305C116.873 53.6619 111.149 66.7786 92.2695 84.471ZM86.2436 84.3696C86.2436 84.573 86.043 84.6744 85.8424 84.471C80.319 78.0651 76.6033 70.2357 74.0924 61.6944L70.2763 64.1349C69.2723 64.8464 68.4689 64.5415 67.8662 63.4232C62.7446 54.2719 59.4307 39.2229 59.1293 28.6481C59.1293 28.1398 59.2298 27.8347 59.6316 27.3264C60.937 25.6995 62.5437 24.0727 64.0502 22.649C64.3513 22.3439 64.6527 22.5473 64.6527 23.0556C64.6527 36.0709 66.8622 48.1711 70.377 56.1021C70.6781 56.7121 70.9794 56.7121 71.381 56.4073L72.4857 55.6956C70.377 46.2391 69.1718 33.6306 69.4732 19.0902C69.4732 18.5816 69.5736 18.3785 69.8747 18.1751C70.9794 17.4631 72.9877 16.3448 74.6952 15.6331C75.1972 15.4297 75.2976 15.5314 75.2976 15.9382C74.9965 37.0877 76.7034 51.7299 80.4192 63.4232C80.5199 63.7281 80.821 63.6266 80.821 63.3215C80.6201 59.051 80.6201 55.2887 80.6201 50.7128L80.4192 14.2094C80.4192 13.8028 80.5199 13.5994 80.9212 13.4977C82.6286 13.0908 84.1349 12.786 85.9425 12.5825C86.1434 12.5825 86.2436 12.6843 86.2436 12.8877V84.3696Z" fill="white"/> <path d="M135.918 120.41C135.918 121.138 135.316 121.727 134.617 121.727C133.898 121.727 133.315 121.138 133.315 120.41C133.315 119.702 133.898 119.092 134.617 119.092C135.316 119.092 135.918 119.702 135.918 120.41Z" fill="white"/> <path d="M129.353 121.747C127.507 121.747 126.148 120.725 125.468 118.522L127.294 117.401C127.682 118.777 128.304 119.603 129.411 119.603C130.266 119.603 130.849 118.915 130.849 118.128C130.849 117.263 130.305 116.575 129.489 115.945L127.876 114.726C126.497 113.683 126.031 112.444 126.031 111.225C126.031 109.179 127.566 107.704 129.43 107.704C131.082 107.704 132.286 108.55 132.927 110.576L131.043 111.716C130.732 110.576 130.247 109.848 129.334 109.848C128.634 109.848 128.207 110.418 128.207 111.068C128.207 111.815 128.634 112.484 129.508 113.133L130.965 114.234C132.364 115.276 133.024 116.437 133.024 117.951C133.024 120.115 131.354 121.747 129.353 121.747Z" fill="white"/> <path fill-rule="evenodd" clip-rule="evenodd" d="M125.041 114.726C125.041 119.466 123.429 121.786 120.767 121.786C118.106 121.786 116.493 119.466 116.493 114.726C116.493 109.986 118.125 107.645 120.767 107.645C123.409 107.645 125.041 109.986 125.041 114.726ZM118.708 114.726C118.708 118.03 119.504 119.643 120.767 119.643C122.03 119.643 122.826 118.03 122.826 114.726C122.826 111.421 122.03 109.789 120.767 109.789C119.504 109.789 118.708 111.421 118.708 114.726Z" fill="white"/> <path fill-rule="evenodd" clip-rule="evenodd" d="M116.183 121.609H113.755L111.87 116.791C111.618 116.889 111.365 116.987 111.094 117.066L110.841 117.145V121.609H108.646V107.842H110.705C113.619 107.842 115.678 109.415 115.678 112.09C115.678 113.743 114.959 114.923 113.794 115.768L116.183 121.609ZM111.171 114.745C112.647 114.214 113.502 113.369 113.502 112.09C113.502 110.871 112.609 110.045 110.841 109.966V114.863L111.171 114.745Z" fill="white"/> <path fill-rule="evenodd" clip-rule="evenodd" d="M105.421 113.978C106.781 114.45 107.578 115.591 107.578 117.086C107.578 119.702 105.344 121.609 101.906 121.609H100.002V107.842H101.867C104.8 107.842 106.684 109.258 106.684 111.48C106.684 112.385 106.218 113.29 105.421 113.978ZM105.402 117.106C105.402 115.867 104.256 115.296 102.838 115.65L102.178 115.807V119.525C104.062 119.525 105.402 118.522 105.402 117.106ZM102.527 113.683C103.829 113.408 104.547 112.621 104.547 111.658C104.547 110.635 103.654 109.986 102.178 109.946V113.762L102.527 113.683Z" fill="white"/> <path fill-rule="evenodd" clip-rule="evenodd" d="M96.1367 121.609H93.7086L91.8244 116.791C91.5719 116.889 91.3195 116.987 91.0474 117.066L90.7952 117.145V121.609H88.6V107.842H90.659C93.5724 107.842 95.6315 109.415 95.6315 112.09C95.6315 113.743 94.913 114.923 93.7476 115.768L96.1367 121.609ZM91.125 114.745C92.6012 114.214 93.4561 113.369 93.4561 112.09C93.4561 110.871 92.5625 110.045 90.7952 109.966V114.863L91.125 114.745Z" fill="white"/> <path d="M87.6096 121.609H81.1411V107.842H87.6096L87.182 109.966H83.336V113.408H86.5412V115.591H83.336V119.485H87.6096V121.609Z" fill="white"/> <path d="M73.9734 121.609H71.8367V107.842H73.993L77.5282 116.397V107.842H79.6649V121.609H77.5086L73.9734 113.054V121.609Z" fill="white"/> <path fill-rule="evenodd" clip-rule="evenodd" d="M71.1765 121.609H68.7482L66.8642 116.791C66.6115 116.889 66.3593 116.987 66.0872 117.066L65.8345 117.145V121.609H63.6398V107.842H65.6988C68.6125 107.842 70.6713 109.415 70.6713 112.09C70.6713 113.743 69.9525 114.923 68.7871 115.768L71.1765 121.609ZM66.1648 114.745C67.6413 114.214 68.496 113.369 68.496 112.09C68.496 110.871 67.6023 110.045 65.8345 109.966V114.863L66.1648 114.745Z" fill="white"/> <path fill-rule="evenodd" clip-rule="evenodd" d="M56.6663 121.609H54.4907L57.2295 107.842H60.1822L62.921 121.609H60.6678L60.1822 119.033H57.1519L56.6663 121.609ZM58.6668 111.028L57.5599 116.909H59.7742L58.6668 111.028Z" fill="white"/> <path d="M47.2064 121.609H44.9918L42.2143 107.842H44.4869L46.1962 116.791L47.8666 107.842H49.9259L51.5963 116.791L53.3252 107.842H55.5202L52.723 121.609H50.5085L48.8574 112.857L47.2064 121.609Z" fill="white"/> <path d="M75.3021 133.443C74.8412 133.443 74.4155 133.364 74.0252 133.205C73.6347 133.046 73.2965 132.824 73.011 132.538C72.725 132.251 72.502 131.9 72.3422 131.483C72.1824 131.066 72.1026 130.602 72.1026 130.092C72.1026 129.581 72.1854 129.118 72.3516 128.701C72.5176 128.283 72.7435 127.93 73.0293 127.641C73.3153 127.351 73.6546 127.127 74.0481 126.968C74.4416 126.81 74.8627 126.73 75.3115 126.73C75.8831 126.73 76.4071 126.839 76.8836 127.057C77.3598 127.275 77.7334 127.617 78.0042 128.084L76.6854 129.186C76.5379 128.9 76.3443 128.678 76.1044 128.523C75.8648 128.368 75.6003 128.29 75.3115 128.29C75.1208 128.29 74.9393 128.328 74.7674 128.406C74.5952 128.484 74.4432 128.598 74.311 128.747C74.1786 128.896 74.0744 129.086 73.9976 129.316C73.9205 129.547 73.8823 129.811 73.8823 130.11C73.8823 130.403 73.9221 130.663 74.0021 130.89C74.0819 131.117 74.1894 131.307 74.3247 131.459C74.4598 131.612 74.6183 131.727 74.7999 131.805C74.9812 131.883 75.17 131.921 75.3666 131.921C75.6989 131.921 75.9691 131.842 76.1783 131.683C76.387 131.524 76.5315 131.299 76.6115 131.006H75.1638V129.737H78.4004V130.082C78.4004 130.63 78.3203 131.114 78.1608 131.534C78.0007 131.954 77.7839 132.306 77.5108 132.589C77.2371 132.872 76.9097 133.086 76.5285 133.229C76.1471 133.372 75.7386 133.443 75.3021 133.443Z" fill="white"/> <path fill-rule="evenodd" clip-rule="evenodd" d="M80.6964 126.824H83.0939L85.2056 133.359H83.3612L82.9833 132.118H80.7518L80.383 133.359H78.5574L80.6964 126.824ZM81.1391 130.773H82.5868L81.8584 128.355L81.1391 130.773Z" fill="white"/> <path d="M89.9725 133.359H89.0872L87.5568 128.794V133.359H85.9984V126.824H88.4694L89.5575 130.176L90.655 126.824H93.1169V133.359H91.5123V128.775L89.9725 133.359Z" fill="white"/> <path d="M94.4998 133.359V126.824H99.4328L99.1102 128.289H96.2148V129.438H98.9259V130.764H96.2148V131.921H99.4328V133.359H94.4998Z" fill="white"/> <path d="M100.336 128.794C100.336 128.165 100.561 127.666 101.01 127.295C101.458 126.925 102.054 126.74 102.798 126.74C103.382 126.74 103.908 126.838 104.375 127.034C104.842 127.23 105.233 127.527 105.546 127.925L104.43 129.093C104.258 128.837 104.031 128.618 103.748 128.434C103.465 128.251 103.133 128.159 102.752 128.159C102.543 128.159 102.379 128.203 102.259 128.29C102.139 128.377 102.079 128.489 102.079 128.626C102.079 128.744 102.133 128.85 102.241 128.943C102.348 129.037 102.546 129.127 102.835 129.214L103.757 129.494C104.464 129.712 104.956 129.978 105.233 130.292C105.509 130.607 105.648 130.96 105.648 131.352C105.648 131.638 105.592 131.909 105.482 132.164C105.371 132.42 105.205 132.642 104.984 132.832C104.763 133.022 104.483 133.173 104.145 133.285C103.806 133.397 103.413 133.453 102.964 133.453C102.325 133.453 101.763 133.345 101.277 133.13C100.791 132.916 100.404 132.616 100.115 132.229L101.213 131.091C101.409 131.371 101.653 131.604 101.945 131.791C102.237 131.977 102.592 132.071 103.011 132.071C103.299 132.071 103.509 132.018 103.638 131.912C103.767 131.806 103.831 131.694 103.831 131.576C103.831 131.445 103.779 131.337 103.675 131.249C103.57 131.162 103.413 131.085 103.204 131.016L102.043 130.642C101.434 130.45 100.997 130.191 100.733 129.867C100.469 129.544 100.336 129.186 100.336 128.794Z" fill="white"/> <path d="M97.9024 96.5243H97.1716V96.2093H98.98V96.5243H98.2422V98.2384H97.9024V96.5243Z" fill="white"/> <path d="M99.6821 96.2093L100.268 97.6888L100.854 96.2093H101.296V98.2384H100.984V96.6559L100.355 98.2384H100.174L99.5446 96.6559V98.2384H99.2336V96.2093H99.6821Z" fill="white"/> <defs> <filter id="filter0_d_34_31516" x="0.386115" y="133.439" width="178.744" height="86.784" filterUnits="userSpaceOnUse" color-interpolation-filters="sRGB"> <feFlood flood-opacity="0" result="BackgroundImageFix"/> <feColorMatrix in="SourceAlpha" type="matrix" values="0 0 0 0 0 0 0 0 0 0 0 0 0 0 0 0 0 0 127 0" result="hardAlpha"/> <feOffset/> <feGaussianBlur stdDeviation="4.15942"/> <feComposite in2="hardAlpha" operator="out"/> <feColorMatrix type="matrix" values="0 0 0 0 0 0 0 0 0 0 0 0 0 0 0 0 0 0 0.25 0"/> <feBlend mode="normal" in2="BackgroundImageFix" result="effect1_dropShadow_34_31516"/> <feBlend mode="normal" in="SourceGraphic" in2="effect1_dropShadow_34_31516" result="shape"/> </filter> </defs> </svg>
