<?xml version="1.0" encoding="utf-8"?>
<svg version="1.2" baseProfile="tiny" id="Layer_1" xmlns="http://www.w3.org/2000/svg" xmlns:xlink="http://www.w3.org/1999/xlink" x="0px" y="0px" width="200px" height="32.5px" viewBox="0 0 200 32.5" xml:space="preserve">
<polyline fill="#FFFFFF" points="31.414,32.502 31.414,18.676 6.111,18.676 6.111,32.502 0,32.502 0,-0.002 6.111,-0.002 6.111,13.189 31.414,13.189 31.414,-0.002 37.523,-0.002 37.523,32.502 31.414,32.502 "/>
<polyline fill="#FFFFFF" points="192.89,32.502 179.128,6.215 165.384,32.502 158.851,32.502 175.903,-0.002 182.847,-0.002 199.911,32.502 192.89,32.502 "/>
<path fill="#FFFFFF" d="M76.132,32.502V-0.002h23.771c2.364,0,4.389,0.143,6.017,0.419c1.696,0.29,3.132,0.745,4.264,1.352 c1.195,0.637,2.134,1.459,2.797,2.441c0.63,0.926,1.09,2.04,1.385,3.303c0.271,1.18,0.434,2.528,0.482,4.012 c0.042,1.424,0.066,2.992,0.066,4.724c0,1.727-0.024,3.303-0.066,4.719c-0.049,1.49-0.211,2.836-0.482,4.014 c-0.295,1.271-0.755,2.381-1.391,3.312c-0.657,0.979-1.596,1.793-2.792,2.436c-1.131,0.607-2.566,1.062-4.263,1.346 c-1.634,0.281-3.66,0.428-6.017,0.428H76.132 M99.902,27.014c1.621,0,3.011-0.047,4.125-0.129c1.035-0.084,1.884-0.248,2.534-0.492 c0.536-0.201,0.929-0.475,1.206-0.836c0.297-0.402,0.527-0.959,0.676-1.666c0.174-0.814,0.281-1.84,0.312-3.047 c0.031-1.285,0.046-2.812,0.046-4.596c0-1.781-0.015-3.315-0.046-4.595c-0.031-1.213-0.139-2.232-0.312-3.039 c-0.148-0.709-0.379-1.275-0.681-1.683c-0.269-0.349-0.66-0.621-1.208-0.825c-0.644-0.247-1.488-0.409-2.518-0.489 c-1.105-0.088-2.495-0.131-4.135-0.131H82.248v21.527H99.902z"/>
<path fill="#FFFFFF" d="M149.636,32.502v-6.828c0-0.896-0.014-1.668-0.045-2.307c-0.027-0.529-0.111-0.973-0.252-1.324 c-0.107-0.258-0.264-0.461-0.486-0.621c-0.184-0.127-0.568-0.318-1.287-0.473c-0.67-0.145-1.559-0.242-2.66-0.305 c-1.129-0.057-2.518-0.084-4.166-0.084h-15.772v11.941h-6.113V-0.002h22.515c2.334,0,4.33,0.087,5.943,0.254 c1.67,0.173,3.025,0.428,4.143,0.784c1.178,0.375,2.109,0.863,2.785,1.45c0.689,0.6,1.211,1.332,1.537,2.168 c0.303,0.761,0.48,1.621,0.533,2.555c0.041,0.835,0.068,1.75,0.068,2.761c0,1.312-0.096,2.501-0.283,3.517 c-0.207,1.091-0.561,2.047-1.055,2.831c-0.463,0.75-1.078,1.366-1.836,1.848c0.658,0.471,1.182,1.064,1.557,1.768 c0.412,0.752,0.684,1.641,0.814,2.641c0.115,0.91,0.17,1.92,0.17,3.1v6.828H149.636 M141.368,15.078 c1.645,0,3.043-0.033,4.168-0.088c1.064-0.05,1.961-0.16,2.664-0.299c0.715-0.155,1.094-0.341,1.285-0.48 c0.219-0.155,0.375-0.354,0.477-0.613c0.146-0.349,0.229-0.792,0.256-1.318c0.031-0.651,0.045-1.422,0.045-2.309 c0-0.833-0.014-1.542-0.045-2.14c-0.023-0.471-0.102-0.848-0.23-1.13c-0.092-0.208-0.23-0.363-0.447-0.49 c-0.186-0.112-0.574-0.28-1.316-0.425c-0.682-0.126-1.576-0.205-2.666-0.245c-1.139-0.037-2.537-0.055-4.189-0.055h-16.401v9.592 H141.368z"/>
<polyline fill="#FFFFFF" points="73.18,-0.002 66.646,-0.002 57.137,18.211 47.604,-0.002 40.58,-0.002 53.397,24.414 53.397,32.502 60.369,32.502 60.369,24.418 73.18,-0.002 "/>
</svg>
