<?xml version="1.0" encoding="utf-8"?>
<svg version="1.2" baseProfile="tiny" id="Layer_1" xmlns="http://www.w3.org/2000/svg" xmlns:xlink="http://www.w3.org/1999/xlink" x="0px" y="0px" width="200px" height="200px" viewBox="0 0 200 200" xml:space="preserve">
<path fill="#FFFFFF" d="M0,0v45.869c2.307,24.589,8.256,45.633,16.172,63.526c-0.009-0.019-0.021-0.033-0.03-0.051 c0,0,3.446,10.577,15.029,27.445c22.407,26.711,62.251,12.353,62.251,12.353c23.564-9.672,32.864-31.806,32.864-31.806 c1.158-3.015,1.916-5.805,2.341-8.404c-3.401,6.963-14.572,25.756-38.658,32.531c0,0-29.271,9.256-54.73-9.821 c-14.1-21.673-25.789-49.918-29.223-86.056V7.104h187.971v38.481c-0.969,10.168-2.613,19.683-4.748,28.634 c1.496,1.858,3.082,3.938,4.691,6.254c2.809-10.666,4.906-22.184,6.07-34.605V0H0"/>
<path fill="#FFFFFF" d="M166.635,61.605c2.803-0.542,5.33-0.965,5.33-0.965c-14.018-12.157-27.737-17.609-27.737-17.609 s6.368-1.154,10.354-1.263c-25.78-15-50.457-13.323-50.457-13.323c11.122-3.669,16.604-4.074,16.604-4.074 c-35.796-5.796-61.803,9.265-61.803,9.265S31.581,45.061,15.059,74.411c0,0,0.842,5.085,2.034,8.269 c6.408-2.902,12.669-5.259,18.601-7.184c13.328-15.212,28.242-22.069,28.242-22.069s22.879-13.25,54.368-8.152 c0,0-4.425,1.995-8.716,4.185c0,0,16.307-1.617,39.338,11.713c-2.986,0.923-5.98,2.35-5.98,2.35s7.561,3.018,20.428,13.659 c0,0,5.992,4.493,15.516,16.322c-19.055,61.514-64.913,95.591-75.92,103.052c6.705-3.348,23.885-12.906,42.029-30.839 c0.716-0.711,1.431-1.424,2.146-2.16c0.256-0.259,0.512-0.516,0.766-0.779c1.164-1.211,2.334-2.452,3.504-3.729 c0.066-0.073,0.135-0.15,0.201-0.223c2.498-2.744,4.994-5.645,7.467-8.714c0.02-0.021,0.037-0.042,0.055-0.067 c1.031-1.283,2.055-2.611,3.076-3.951c0.414-0.545,0.828-1.088,1.24-1.644c0.477-0.639,0.947-1.301,1.418-1.955 c10.375-14.393,19.865-31.976,26.523-53.215C181.25,72.371,166.635,61.605,166.635,61.605z M47.418,46.496l-0.197,4.061l-11.697,4.7 c0,0,9.268-8.841,14.824-12.46L47.418,46.496z"/>
<path fill="#FFFFFF" d="M134.865,63.65c0,0,2.812-1.755,5.679-3.011c-24.392-10.642-42.159-7.224-42.159-7.224 c3.011-3.132,7.271-5.209,7.271-5.209C76.082,46.523,55.223,62.55,55.223,62.55S31.095,79.855,23.205,98.549 c0,0,1.688,5.475,3.507,9.265c25.101-14.425,49.067-18.041,49.067-18.041c-0.769-4.421-2.226-7.208-2.226-7.208 s62.394-8.118,50.843,36.438c0,0-6.74,23.041-29.061,35.314c0,0-29.405,15.259-51.17-0.273c0,0,22.854,28.396,55.835,43.908 c0,0,60.165-27.123,73.966-104.565C159.699,74.093,134.865,63.65,134.865,63.65z M48.985,78.634l-11.442,5.454 c0,0,8.742-9.46,14.092-13.443l-2.705,3.901L48.985,78.634z"/>
</svg>
