<?xml version="1.0" encoding="utf-8"?>
<svg width="181" height="255" viewBox="0 0 181 255" fill="none" xmlns="http://www.w3.org/2000/svg">
  <path d="M5.36458 231.41H9.63964L12.8304 214.717L16.0211 231.41H20.2962L25.6971 205.152H21.4583L18.1171 222.223L14.8901 205.152H10.9107L7.68369 222.223L4.38401 205.152H0L5.36458 231.41ZM23.7152 231.41H27.9176L28.8567 226.497H34.7089L35.648 231.41H40.0009L34.7089 205.152H29.0019L23.7152 231.41ZM29.6401 222.446L31.7776 211.231L33.9151 222.446H29.6401ZM51.254 231.41H55.9441L51.3267 220.268C53.5783 218.654 54.9688 216.403 54.9688 213.254C54.9688 208.15 50.9894 205.152 45.3654 205.152H41.3861V231.41H45.6248V222.892L46.1125 222.742C46.6365 222.591 47.1242 222.405 47.6119 222.218L51.254 231.41ZM50.7663 213.254C50.7663 215.692 49.1165 217.306 46.263 218.317L45.6248 218.54V209.198C49.0387 209.354 50.7663 210.931 50.7663 213.254ZM57.2204 231.41H61.3502V215.091L68.1779 231.41H72.344V205.152H68.2142V221.471L61.3865 205.152H57.2204V231.41V231.41ZM75.1923 231.41H87.6854V227.358H79.431V219.93H85.6205V215.765H79.431V209.198H86.8605L87.6854 205.147H75.1923V231.41ZM99.4678 231.41H104.158L99.5456 220.268C101.797 218.654 103.183 216.403 103.183 213.254C103.183 208.15 99.2032 205.152 93.5792 205.152H89.5999V231.41H93.8386V222.892L94.3263 222.742C94.8503 222.591 95.338 222.405 95.8257 222.218L99.4678 231.41ZM98.9801 213.254C98.9801 215.692 97.3302 217.306 94.4767 218.317L93.8386 218.54V209.198C97.2524 209.354 98.9801 210.931 98.9801 213.254ZM126.254 222.783C126.254 219.93 124.713 217.757 122.088 216.854C123.629 215.542 124.527 213.815 124.527 212.087C124.527 207.849 120.885 205.147 115.219 205.147H111.618V231.404H115.297C121.943 231.41 126.254 227.773 126.254 222.783ZM120.402 212.43C120.402 214.266 119.012 215.77 116.501 216.294L115.826 216.445V209.167C118.68 209.24 120.402 210.479 120.402 212.43ZM117.102 220.045C119.842 219.37 122.057 220.46 122.057 222.82C122.057 225.522 119.468 227.436 115.826 227.436V220.345L117.102 220.045ZM138.187 231.41H142.877L138.26 220.268C140.511 218.654 141.902 216.403 141.902 213.254C141.902 208.15 137.923 205.152 132.299 205.152H128.319V231.41H132.558V222.892L133.046 222.742C133.57 222.591 134.057 222.405 134.545 222.218L138.187 231.41ZM137.699 213.254C137.699 215.692 136.05 217.306 133.196 218.317L132.558 218.54V209.198C135.972 209.354 137.699 210.931 137.699 213.254ZM151.733 231.747C156.875 231.747 159.988 227.322 159.988 218.281C159.988 209.24 156.839 204.773 151.733 204.773C146.628 204.773 143.479 209.24 143.479 218.281C143.479 227.322 146.592 231.747 151.733 231.747ZM151.733 227.659C149.295 227.659 147.754 224.583 147.754 218.281C147.754 211.978 149.295 208.866 151.733 208.866C154.172 208.866 155.713 211.978 155.713 218.281C155.708 224.583 154.172 227.659 151.733 227.659ZM160.813 225.522C162.125 229.724 164.751 231.674 168.315 231.674C172.18 231.674 175.407 228.562 175.407 224.433C175.407 221.544 174.131 219.329 171.428 217.342L168.616 215.241C166.93 214.001 166.105 212.725 166.105 211.304C166.105 210.064 166.93 208.98 168.279 208.98C170.043 208.98 170.982 210.37 171.578 212.544L175.215 210.37C173.975 206.506 171.651 204.893 168.46 204.893C164.86 204.893 161.892 207.704 161.892 211.61C161.892 213.934 162.795 216.299 165.456 218.286L168.569 220.61C170.146 221.808 171.194 223.121 171.194 224.775C171.194 226.274 170.069 227.587 168.419 227.587C166.281 227.587 165.077 226.01 164.33 223.385L160.813 225.522ZM178.484 231.638C179.833 231.638 181 230.512 181 229.122C181 227.773 179.838 226.606 178.484 226.606C177.093 226.606 175.973 227.768 175.973 229.122C175.973 230.512 177.098 231.638 178.484 231.638Z" fill="white"/>
  <path d="M90.5 15C58.9 15 33.3333 38 24.5 49.5C26.5 78.8333 42.5 146 90.5 180C149.7 137.6 158.5 75.3333 155.5 49.5C147 38 122.1 15 90.5 15Z" fill="#132745"/>
  <path d="M126.171 80.2803C122.098 80.2803 118.41 81.8312 106.97 89.9751V133.807C126.757 111.699 132.381 96.568 132.381 88.8132C132.376 83.3874 129.855 80.2803 126.171 80.2803Z" fill="white"/>
  <path d="M127.723 51.1908C127.723 43.4307 118.799 37.0349 106.965 36.2568V76.7895C121.902 68.0647 127.723 59.3346 127.723 51.1908Z" fill="white"/>
  <path d="M162.847 33.9954C162.655 33.2173 162.458 32.9268 162.068 32.8335L148.097 29.1454L146.156 21.1934C146.058 20.8044 145.964 20.5139 145.575 20.4153L131.219 16.5353L129.471 8.97238C129.372 8.39141 129.082 8.10093 128.693 8.00237L91.4002 1.08266C90.788 0.968541 90.1654 0.968541 89.5532 1.08266L52.2554 7.99718C51.8663 8.09574 51.5758 8.38622 51.4772 8.96719L49.7288 16.5301L35.3731 20.4101C34.984 20.5087 34.8854 20.7992 34.792 21.1882L32.8516 29.1402L18.885 32.8283C18.4959 32.9268 18.304 33.2173 18.1068 33.9902C16.9447 40.0021 16.3584 46.4031 16.3584 52.8093C16.3584 108.675 45.4641 157.176 88.9203 186.079C89.5013 186.468 90.0824 186.857 90.4715 186.857C90.8606 186.857 91.4417 186.468 92.0228 186.079C135.484 157.176 164.585 108.681 164.585 52.8093C164.595 46.4083 164.014 40.0073 162.847 33.9954ZM85.0499 160.381C85.0499 160.77 84.6608 160.962 84.2768 160.573C73.6099 148.352 66.4295 133.423 61.5786 117.13L54.2062 121.783C52.2658 123.142 50.7145 122.561 49.5524 120.424C39.6585 102.969 33.2563 74.2635 32.6752 54.0957C32.6752 53.1257 32.8672 52.5448 33.6454 51.5748C36.1669 48.4728 39.2694 45.3709 42.18 42.6528C42.761 42.0718 43.3421 42.4609 43.3421 43.4309C43.3421 68.2568 47.612 91.3346 54.3981 106.46C54.9792 107.622 55.5603 107.622 56.3385 107.041L58.4708 105.682C54.3981 87.6465 52.0686 63.5987 52.6497 35.8628C52.6497 34.8928 52.8417 34.5037 53.4227 34.1199C55.5551 32.7608 59.4358 30.6289 62.7355 29.2699C63.7057 28.8808 63.8977 29.0779 63.8977 29.8508C63.3166 70.1916 66.6111 98.1194 73.7915 120.424C73.9835 121.005 74.5698 120.813 74.5698 120.232C74.1806 112.089 74.1806 104.909 74.1806 96.1846L73.7915 26.557C73.7915 25.7789 73.9835 25.395 74.7617 25.1979C78.0614 24.4198 80.9668 23.8389 84.4584 23.455C84.8475 23.455 85.0395 23.6469 85.0395 24.036V160.381H85.0499ZM96.687 160.573C96.2979 160.962 95.9087 160.765 95.9087 160.381V24.0412C95.9087 23.6521 96.1007 23.4602 96.4898 23.4602C122.483 25.2031 139.168 36.0651 139.168 51.7771C139.168 58.37 136.646 64.771 132.376 69.4239C140.911 71.7529 144.211 78.1487 144.211 86.6869C144.211 101.813 133.155 126.831 96.687 160.573Z" fill="white"/>
  <path d="M63.9135 253.985C63.0211 253.985 62.2014 253.834 61.4491 253.528C60.6968 253.227 60.0431 252.802 59.488 252.252C58.938 251.707 58.5074 251.033 58.1961 250.239C57.8848 249.446 57.7344 248.559 57.7344 247.584C57.7344 246.608 57.8952 245.727 58.2169 244.928C58.5385 244.134 58.9744 243.46 59.5243 242.905C60.0742 242.35 60.7331 241.924 61.4906 241.623C62.2481 241.323 63.0626 241.167 63.9291 241.167C65.0341 241.167 66.0458 241.374 66.9641 241.789C67.8825 242.204 68.6036 242.858 69.1276 243.75L66.5802 245.851C66.2949 245.306 65.9213 244.881 65.4596 244.585C64.9978 244.29 64.4842 244.139 63.9291 244.139C63.5607 244.139 63.2079 244.212 62.8759 244.362C62.5438 244.513 62.2481 244.725 61.9939 245.011C61.7396 245.296 61.5373 245.659 61.3869 246.095C61.2364 246.536 61.1638 247.039 61.1638 247.609C61.1638 248.17 61.2416 248.662 61.3972 249.098C61.5529 249.534 61.7604 249.892 62.0198 250.182C62.2792 250.473 62.5853 250.691 62.9381 250.841C63.2857 250.992 63.6541 251.064 64.0328 251.064C64.6762 251.064 65.195 250.914 65.5997 250.608C66.0043 250.307 66.2845 249.876 66.435 249.316H63.6385V246.894H69.8903V247.552C69.8903 248.595 69.7346 249.518 69.4285 250.322C69.1172 251.121 68.7022 251.796 68.173 252.335C67.6438 252.874 67.0108 253.284 66.2741 253.554C65.5478 253.844 64.754 253.985 63.9135 253.985Z" fill="white"/>
  <path d="M74.3313 241.359H78.9643L83.0422 253.824H79.4779L78.7464 251.454H74.435L73.7243 253.824H70.1963L74.3313 241.359ZM75.1873 248.891H77.9837L76.5778 244.28L75.1873 248.891Z" fill="white"/>
  <path d="M92.2508 253.824H90.5387L87.5814 245.115V253.824H84.5723V241.359H89.3454L91.4466 247.755L93.5686 241.359H98.3261V253.824H95.2288V245.079L92.2508 253.824Z" fill="white"/>
  <path d="M100.993 253.824V241.359H110.524L109.901 244.155H104.308V246.344H109.543V248.876H104.308V251.085H110.524V253.829H100.993V253.824Z" fill="white"/>
  <path d="M112.268 245.115C112.268 243.916 112.698 242.962 113.57 242.256C114.436 241.551 115.588 241.198 117.025 241.198C118.151 241.198 119.168 241.385 120.071 241.758C120.973 242.132 121.726 242.697 122.333 243.46L120.18 245.685C119.847 245.198 119.406 244.777 118.862 244.43C118.317 244.082 117.674 243.906 116.937 243.906C116.532 243.906 116.216 243.989 115.982 244.155C115.749 244.321 115.635 244.534 115.635 244.798C115.635 245.021 115.738 245.224 115.946 245.405C116.153 245.581 116.537 245.758 117.093 245.924L118.872 246.458C120.237 246.873 121.186 247.381 121.72 247.983C122.255 248.585 122.519 249.254 122.519 250.006C122.519 250.551 122.41 251.069 122.198 251.557C121.985 252.045 121.663 252.47 121.238 252.833C120.812 253.196 120.268 253.482 119.619 253.699C118.965 253.912 118.208 254.021 117.342 254.021C116.107 254.021 115.022 253.813 114.083 253.409C113.144 252.999 112.397 252.429 111.837 251.692L113.959 249.519C114.338 250.053 114.81 250.499 115.375 250.852C115.941 251.204 116.626 251.386 117.435 251.386C117.995 251.386 118.395 251.287 118.644 251.085C118.893 250.883 119.017 250.67 119.017 250.442C119.017 250.193 118.919 249.985 118.716 249.819C118.514 249.653 118.213 249.503 117.809 249.373L115.562 248.663C114.384 248.294 113.544 247.802 113.03 247.184C112.527 246.546 112.268 245.862 112.268 245.115Z" fill="white"/>
  <path d="M112.137 185.789L111.006 182.967H110.14V186.837H110.742V183.818L111.956 186.837H112.303L113.517 183.818V186.837H114.119V182.967H113.268L112.137 185.789ZM106.155 183.564H107.566V186.832H108.225V183.564H109.652V182.962H106.16V183.564H106.155Z" fill="white"/>
</svg>